<svg id="bt-png" xmlns="http://www.w3.org/2000/svg" width="20" height="35.025" viewBox="0 0 20 35.025">
  <path id="Vector" d="M5.414.124A1.533,1.533,0,0,0,4.38,1.2a22.365,22.365,0,0,0-.06,3V6.964l-1.67.011c-1.665.011-1.671.012-1.877.1a1.274,1.274,0,0,0-.378.284c-.312.347-.3.165-.286,3.728.011,3.152.011,3.163.095,3.318a1.382,1.382,0,0,0,.557.537c.177.087.2.089,1.87.1l1.69.011v1.808c0,1.961.01,2.077.218,2.432a1.823,1.823,0,0,0,.749.649l.225.091,6,.012c4.49.009,6.052,0,6.213-.034a1.532,1.532,0,0,0,1.071-.857l.12-.254.01-6.673.01-6.673-.989-1.024c-.544-.563-1.708-1.772-2.586-2.685S13.717.157,13.661.119C13.567.056,13.3.051,9.595.053A29.337,29.337,0,0,0,5.414.124ZM5.55.906a.72.72,0,0,0-.389.4,18.4,18.4,0,0,0-.06,2.9V6.965l3.409.011,3.409.011.192.095a1.276,1.276,0,0,1,.573.573l.095.192v6.33l-.109.222a1.2,1.2,0,0,1-.547.549l-.165.088-3.429.011L5.1,15.057v1.806a7.079,7.079,0,0,0,.073,1.964.774.774,0,0,0,.466.409c.1.029,1.945.038,6.087.03l5.942-.012.137-.094a1.069,1.069,0,0,0,.232-.232l.094-.137.01-6.284.01-6.284H15.7c-1.351,0-2.512-.011-2.579-.024a.513.513,0,0,1-.22-.123l-.1-.1V.832H9.253C5.889.834,5.7.838,5.55.906Zm8.03,2.378V5.443H17.74l-.256-.264c-.141-.145-.956-.993-1.812-1.885S14,1.549,13.848,1.4l-.268-.273ZM1.09,7.787c-.218.089-.209-.047-.209,3.236v3.023L1,14.16l.114.114h5.3c5.9,0,5.487.019,5.57-.264.029-.1.039-1.05.031-3.086L12,7.985l-.108-.108-.108-.108-5.3-.008C3.538,7.756,1.137,7.768,1.09,7.787ZM9.4,9.443a1.614,1.614,0,0,0-1.13,1.646,1.63,1.63,0,0,0,.891,1.552,1.27,1.27,0,0,0,.657.14,2.182,2.182,0,0,0,1.43-.395l.109-.081V10.951l-.713.011-.713.011-.011.283-.011.283h.789l-.012.2c-.011.182-.026.213-.145.293a1.176,1.176,0,0,1-1.046.1,1.066,1.066,0,0,1-.521-1.064c0-.7.327-1.09.918-1.09a.718.718,0,0,1,.636.273c.138.248.114.239.456.174a3.075,3.075,0,0,0,.322-.072.658.658,0,0,0-.047-.187,1.144,1.144,0,0,0-.828-.718A2.621,2.621,0,0,0,9.4,9.443ZM1.975,11.089V12.75h.664V11.509l.557-.017c.642-.02.822-.077,1.04-.325a.933.933,0,0,0,.249-.73.789.789,0,0,0-.117-.508.918.918,0,0,0-.7-.462,9.369,9.369,0,0,0-.965-.038H1.975Zm3.087,0V12.75h.625V10.626l.655,1.062L7,12.749H7.68V9.429H7.056l-.01,1.092-.01,1.092-.664-1.091L5.707,9.431H5.062Zm-2.423-.606v.475l.4-.027c.5-.034.638-.087.716-.273a.444.444,0,0,0-.107-.513c-.112-.107-.133-.112-.563-.124l-.447-.013Z" transform="translate(-0.104 -0.053)" fill="#fff" fill-rule="evenodd"/>
  <text id="PNG" transform="translate(0 32.025)" fill="#fff" font-size="9" font-family="AstoriaSans-Roman, Astoria Sans"><tspan x="0" y="0">PNG</tspan></text>
</svg>
