<svg id="bt-pdf" xmlns="http://www.w3.org/2000/svg" width="17" height="35.025" viewBox="0 0 17 35.025">
  <path id="Vector" d="M1.2.123A1.726,1.726,0,0,0,.053,1.285C0,1.458-.006,2.542-.006,10.063c0,9.364-.015,8.739.219,9.157a1.833,1.833,0,0,0,.625.625c.414.231.029.219,6.657.219,5.3,0,6.106-.008,6.278-.059a1.712,1.712,0,0,0,1.164-1.164c.087-.292.089-14.233,0-14.4-.068-.127-4.225-4.279-4.346-4.34C10.533.074,9.2.063,5.945.065,2.124.067,1.352.076,1.2.123ZM1.3,1a.72.72,0,0,0-.389.4c-.054.129-.06,1.063-.06,8.664S.86,18.6.914,18.727a.72.72,0,0,0,.389.4c.15.069.407.072,6.184.073,5.353,0,6.044-.006,6.172-.06a.72.72,0,0,0,.4-.389c.069-.15.072-.428.073-6.925V5.063h-1.36c-1.47,0-1.565-.011-1.937-.219a1.833,1.833,0,0,1-.625-.625C10.006,3.846,10,3.751,10,2.282V.921H5.727C1.661.923,1.452.927,1.3,1Zm9.553,1.567c0,1.152.018,1.245.269,1.456.206.173.338.19,1.4.177l.987-.012L12.184,2.855,10.855,1.527ZM6.838,6.748a1,1,0,0,0-.777.569,2.067,2.067,0,0,0-.222,1.066,3.029,3.029,0,0,0,.695,1.869l.3.443-.3.9c-.165.5-.368,1.081-.451,1.3l-.15.392-1.163.565a6.681,6.681,0,0,0-2,1.2c-.629.735-.114,1.652.935,1.665a.954.954,0,0,0,.517-.1,5.235,5.235,0,0,0,2.145-2.325,2.155,2.155,0,0,1,.207-.334,15.322,15.322,0,0,1,2.268-.653l.547-.117.176.124a8.821,8.821,0,0,0,1.2.764.98.98,0,0,0,.6.139,1.019,1.019,0,0,0,1.132-1.085.868.868,0,0,0-.717-.888,2.078,2.078,0,0,0-.825-.087,7.71,7.71,0,0,0-.936.067c-.3.049-.4.052-.449.016a11.813,11.813,0,0,1-1.76-1.734c0-.03.08-.314.179-.63a4.9,4.9,0,0,0,.334-1.585c-.008-.874-.235-1.338-.728-1.485A1.648,1.648,0,0,0,6.838,6.748Zm.079.854c-.155.066-.22.285-.22.742a1.756,1.756,0,0,0,.318,1.091l.14.251.111-.369a2.684,2.684,0,0,0,.2-1.266,1.024,1.024,0,0,0-.095-.4A.564.564,0,0,0,6.917,7.6Zm.318,4.587L7,12.9l.517-.146c.284-.08.625-.167.757-.193s.236-.06.23-.076-.241-.249-.521-.518l-.51-.49Zm3.385.818a1.734,1.734,0,0,0,.3.2c.308.18.485.218.638.136a.16.16,0,0,0-.012-.278A3.372,3.372,0,0,0,10.621,13.007ZM4.526,14.919c-1.078.54-1.368.8-1.034.927.3.113.624-.047,1.112-.545a3.558,3.558,0,0,0,.579-.705C5.176,14.6,4.881,14.741,4.526,14.919Z" transform="translate(1.006 -0.064)" fill="#fff" fill-rule="evenodd"/>
  <text id="PDF" transform="translate(0 32.025)" fill="#fff" font-size="9" font-family="AstoriaSans-Roman, Astoria Sans"><tspan x="0" y="0">PDF</tspan></text>
</svg>
