<svg xmlns="http://www.w3.org/2000/svg" width="24" height="35.025" viewBox="0 0 24 35.025">
  <g id="bt-texto" transform="translate(1)">
    <path id="Vector" d="M1.633.07a1.768,1.768,0,0,0-1.023.9L.5,1.192V18.815l.11.225a1.762,1.762,0,0,0,.8.8l.3.147,6,.011c3.915.007,6.064,0,6.185-.029a1.575,1.575,0,0,0,.739-.385,1.54,1.54,0,0,0,.468-.7c.072-.208.074-.437.074-6.8V5.491L12.428,2.745,9.682,0H5.755A29.053,29.053,0,0,0,1.633.07Zm.237.768a.915.915,0,0,0-.565.552c-.06.217-.06,17.009,0,17.229a.934.934,0,0,0,.619.562c.285.061,11.521.061,11.806,0a.934.934,0,0,0,.619-.562c.03-.11.043-1.99.043-6.36v-6.2h-1.93a8.762,8.762,0,0,1-2.178-.077,1.7,1.7,0,0,1-1.062-.985c-.083-.2-.085-.256-.1-2.21l-.011-2-3.525,0C2.784.786,2.023.8,1.869.839ZM9.937,3.006c0,1.573,0,1.624.083,1.791a.851.851,0,0,0,.594.437c.129.027.745.038,1.7.031l1.495-.01L11.871,3.322,9.937,1.388ZM4.486,10.088a.386.386,0,0,0-.1.622l.114.114h6.655l.114-.114a.384.384,0,0,0-.108-.624C11.041,10.025,4.6,10.027,4.486,10.088Zm-.026,1.78a.4.4,0,0,0-.125.554c.142.2.084.2,3.492.2s3.35,0,3.492-.2a.414.414,0,0,0-.15-.574c-.077-.035-.914-.046-3.354-.046A19.473,19.473,0,0,0,4.459,11.868ZM4.52,13.6a.4.4,0,0,0-.136.635l.114.128h6.656l.114-.128a.357.357,0,0,0,0-.526l-.114-.128-3.276-.008C6.077,13.567,4.566,13.579,4.52,13.6Zm0,1.777a.387.387,0,0,0-.194.563.4.4,0,0,0,.158.154c.15.068,4.494.066,4.632,0a.473.473,0,0,0,.208-.428.457.457,0,0,0-.331-.319c-.067-.013-1.073-.024-2.237-.023A14.884,14.884,0,0,0,4.52,15.374Z" transform="translate(3.5)" fill="#fff" fill-rule="evenodd"/>
    <text id="Texto" transform="translate(11 32.025)" fill="#fff" font-size="9" font-family="AstoriaSans-Roman, Astoria Sans"><tspan x="-11.349" y="0">Texto</tspan></text>
  </g>
</svg>
