<svg xmlns="http://www.w3.org/2000/svg" width="23.952" height="26.983" viewBox="0 0 23.952 26.983">
  <g id="ic-attach" transform="translate(0.478 0.478)">
    <g id="paperclip" transform="translate(11.042) rotate(30)">
      <g id="Grupo_67795" data-name="Grupo 67795" transform="translate(0 0)">
        <path id="Caminho_35716" data-name="Caminho 35716" d="M13.8,4.831V15.183a6.9,6.9,0,0,1-13.8,0V8.972a.69.69,0,0,1,1.38,0v6.211a5.521,5.521,0,1,0,11.042,0V4.831a3.451,3.451,0,1,0-6.9,0V13.8a1.38,1.38,0,0,0,2.761,0V6.211a.69.69,0,1,1,1.38,0V13.8a2.76,2.76,0,1,1-5.521,0V4.831a4.831,4.831,0,1,1,9.662,0Z" transform="translate(0 0)" fill="#707070" stroke="#707070" stroke-width="0.7"/>
      </g>
    </g>
  </g>
</svg>
