<svg xmlns="http://www.w3.org/2000/svg" width="17" height="25" viewBox="0 0 17 25">
  <g id="ic-audio" transform="translate(1 1)">
    <path id="Caminho_35835" data-name="Caminho 35835" d="M25,14.35a7.791,7.791,0,0,1-7.5,8.05m0,0A7.791,7.791,0,0,1,10,14.35m7.5,8.05V27m0,0H13.214M17.5,27h4.286M17.5,17.8a3.341,3.341,0,0,1-3.214-3.45V7.45A3.341,3.341,0,0,1,17.5,4a3.341,3.341,0,0,1,3.214,3.45v6.9A3.341,3.341,0,0,1,17.5,17.8Z" transform="translate(-10 -4)" fill="none" stroke="#707070" stroke-linecap="round" stroke-linejoin="round" stroke-width="2"/>
  </g>
</svg>
