<svg xmlns="http://www.w3.org/2000/svg" width="24" height="23.999" viewBox="0 0 24 23.999">
  <g id="ic-config" transform="translate(-3 -3.001)">
    <g id="Grupo_46" data-name="Grupo 46" transform="translate(3 3.001)">
      <path id="Caminho_35755" data-name="Caminho 35755" d="M19.507,26.476a9.44,9.44,0,0,0,7.06-6.992,16.676,16.676,0,0,0-.5-9.289l-.155-.445a9.8,9.8,0,0,0-7.523-6.356l-.957-.173a13.564,13.564,0,0,0-4.855,0l-.959.173A9.8,9.8,0,0,0,4.092,9.749l-.155.445a16.676,16.676,0,0,0-.5,9.289,9.44,9.44,0,0,0,7.061,6.992,19.63,19.63,0,0,0,9.011,0Z" transform="translate(-3 -3.001)" fill="#fff" fill-rule="evenodd"/>
      <path id="Vector" d="M3.584.23a1.841,1.841,0,0,0-.405.138,1.533,1.533,0,0,0-.734.872l-.033.115H1.519c-.987,0-.989,0-1.085.135a.36.36,0,0,0,0,.372c.092.129.1.13,1.082.13h.89l.047.143a1.459,1.459,0,0,0,1.465,1A1.35,1.35,0,0,0,4.879,2.7,1.353,1.353,0,0,0,5.3,1.674,1.351,1.351,0,0,0,4.879.653,1.287,1.287,0,0,0,4.294.282,1.721,1.721,0,0,0,3.584.23Zm.123.637a.82.82,0,0,0-.2,1.553.825.825,0,0,0,1.157-.749.923.923,0,0,0-.285-.617A.866.866,0,0,0,3.708.867ZM6,1.393a.318.318,0,0,0,0,.563,17.947,17.947,0,0,0,2.533.037c2.7,0,2.553.007,2.651-.13a.36.36,0,0,0,0-.372c-.1-.144.069-.135-2.653-.135A17.966,17.966,0,0,0,6,1.393Zm1.87,2.7a1.508,1.508,0,0,0-1.16,1.093,1.887,1.887,0,0,0,0,.7,1.512,1.512,0,0,0,1.01,1.055,1.168,1.168,0,0,0,.414.05,1.168,1.168,0,0,0,.414-.05,1.5,1.5,0,0,0,.987-.975l.036-.111.74-.006c.837-.007.8,0,.9-.182.044-.079.075-.269.037-.232-.007.007-.03-.017-.05-.054a.4.4,0,0,0-.094-.111c-.055-.041-.092-.043-.8-.049l-.74-.006L9.54,5.109a1.5,1.5,0,0,0-.976-.971A1.9,1.9,0,0,0,7.875,4.1Zm.118.637a.843.843,0,0,0-.6.467.59.59,0,0,0-.065.34.59.59,0,0,0,.065.34.816.816,0,0,0,1.483,0,.59.59,0,0,0,.065-.34.594.594,0,0,0-.058-.325.811.811,0,0,0-.282-.345A.847.847,0,0,0,7.994,4.733Zm-7.44.518A.273.273,0,0,0,.4,5.54a.27.27,0,0,0,.162.289c.105.044,5.306.044,5.412,0a.327.327,0,0,0,0-.578C5.866,5.207.653,5.208.554,5.252ZM3.19,7.971a1.475,1.475,0,0,0-1.1,1.005l-.037.112H1.339c-.786,0-.812,0-.9.13a.36.36,0,0,0,0,.372c.094.132.117.135.9.135H2.05l.036.112a1.5,1.5,0,0,0,.987.975,1.168,1.168,0,0,0,.414.05,1.168,1.168,0,0,0,.414-.05A1.461,1.461,0,0,0,4.946,9.4a1.275,1.275,0,0,0-.152-.638A1.458,1.458,0,0,0,3.912,8,1.739,1.739,0,0,0,3.19,7.971Zm.155.628a.834.834,0,0,0-.6.467.59.59,0,0,0-.065.34.59.59,0,0,0,.065.34.816.816,0,0,0,1.483,0,.588.588,0,0,0,.066-.34.594.594,0,0,0-.058-.325.811.811,0,0,0-.282-.345A.847.847,0,0,0,3.344,8.6Zm2.3.526a.271.271,0,0,0-.161.278.283.283,0,0,0,.047.187c.1.145-.089.135,2.831.135s2.728.009,2.831-.135a.36.36,0,0,0,0-.372c-.1-.138.068-.13-2.832-.13A20.294,20.294,0,0,0,5.645,9.124Z" transform="translate(6.171 6.463)" fill="#242933" stroke="#242933" stroke-width="1" fill-rule="evenodd"/>
    </g>
  </g>
</svg>
