<svg xmlns="http://www.w3.org/2000/svg" width="24.682" height="16.587" viewBox="0 0 24.682 16.587">
  <path id="ic-dw" d="M237.344,146.015a6.119,6.119,0,0,0,.691-1.332,5.309,5.309,0,0,0,.226-.745,1.866,1.866,0,0,0,.056-.89,2.178,2.178,0,0,0-.344-.711,5.417,5.417,0,0,0-.934-.991c-.161-.139-.328-.27-.49-.407a1.4,1.4,0,0,0-.472-.337.109.109,0,0,0-.126.047.164.164,0,0,0,.016.147,3.3,3.3,0,0,1,.18.437,3.957,3.957,0,0,1-.419,3.553,3.182,3.182,0,0,1-3.321,1.513,3.67,3.67,0,0,1-2.912-3.644,3.707,3.707,0,0,1,2.826-3.752,4.977,4.977,0,0,1,2.146.17,7.505,7.505,0,0,1,4.994,3.849l.085.158a15.043,15.043,0,0,1,.993,2.367c.231.708.375,1.426,1.042,1.8A1.552,1.552,0,0,0,243,147.3a1.923,1.923,0,0,0,.959-1.247c.223-.706.427-1.419.641-2.128l.608-2.017c.425,1.414.834,2.772,1.24,4.13a2.124,2.124,0,0,0,.315.682,1.576,1.576,0,0,0,1.622.679,1.662,1.662,0,0,0,1.331-1.247c.576-1.883,1.14-3.771,1.709-5.656l.71-2.354a3.091,3.091,0,0,0-2.405,1.177,5.028,5.028,0,0,0-.839,1.892c-.21.713-.426,1.425-.639,2.137a.133.133,0,0,1-.022.049.1.1,0,0,1-.052.028.323.323,0,0,1-.153,0,.1.1,0,0,1-.057-.029.137.137,0,0,1-.023-.05c-.028-.092-.058-.183-.085-.276-.358-1.186-.711-2.374-1.068-3.56a1.613,1.613,0,0,0-3.17.006c-.2.654-.391,1.309-.588,1.963-.175.582-.392,1.167-.528,1.761a.27.27,0,0,1-.068.132.219.219,0,0,1-.116.041.242.242,0,0,1-.183-.027.305.305,0,0,1-.083-.144l-.112-.316a10.451,10.451,0,0,0-1.576-2.94,9.1,9.1,0,0,0-.927-1.022q-.254-.241-.525-.46-.138-.111-.279-.217c-.033-.025-.278-.168-.278-.2v-3.3c0-.938.054-1.9,0-2.833-.008-.14-.024-.127-.153-.119a2.291,2.291,0,0,0-.252.03,2.353,2.353,0,0,0-.51.151,2.462,2.462,0,0,0-.862.614,2.892,2.892,0,0,0-.708,1.872c-.022.806,0,1.616,0,2.423-.243-.06-.463-.119-.684-.169a7.928,7.928,0,0,0-3.093-.227,5.961,5.961,0,0,0-4.549,6.987,5.685,5.685,0,0,0,5.245,4.9,5.208,5.208,0,0,0,2.408-.533A5.644,5.644,0,0,0,237.344,146.015Z" transform="translate(-227.455 -131.833)" fill="#fff"/>
</svg>
