<svg xmlns="http://www.w3.org/2000/svg" width="30.139" height="30.139" viewBox="0 0 30.139 30.139">
  <g id="Grupo_67873" data-name="Grupo 67873" transform="translate(-5125.86 310.07)">
    <g id="Caminho_35830" data-name="Caminho 35830" transform="translate(5125.86 -310.07)" fill="#2d2d2d">
      <path d="M 20.2979621887207 29.63940238952637 L 9.841442108154297 29.63940238952637 C 4.690552234649658 29.63940238952637 0.5000021457672119 25.4488525390625 0.5000021457672119 20.2979621887207 L 0.5000021457672119 9.841442108154297 C 0.5000021457672119 4.690552234649658 4.690552234649658 0.5000021457672119 9.841442108154297 0.5000021457672119 L 20.2979621887207 0.5000021457672119 C 25.4488525390625 0.5000021457672119 29.63940238952637 4.690552234649658 29.63940238952637 9.841442108154297 L 29.63940238952637 20.2979621887207 C 29.63940238952637 25.4488525390625 25.4488525390625 29.63940238952637 20.2979621887207 29.63940238952637 Z" stroke="none"/>
      <path d="M 9.841442108154297 1.000001907348633 C 4.966251373291016 1.000001907348633 1.000001907348633 4.966251373291016 1.000001907348633 9.841442108154297 L 1.000001907348633 20.2979621887207 C 1.000001907348633 25.17315292358398 4.966251373291016 29.13940238952637 9.841442108154297 29.13940238952637 L 20.2979621887207 29.13940238952637 C 25.17315292358398 29.13940238952637 29.13940238952637 25.17315292358398 29.13940238952637 20.2979621887207 L 29.13940238952637 9.841442108154297 C 29.13940238952637 4.966251373291016 25.17315292358398 1.000001907348633 20.2979621887207 1.000001907348633 L 9.841442108154297 1.000001907348633 M 9.841442108154297 1.9073486328125e-06 L 20.2979621887207 1.9073486328125e-06 C 25.73324203491211 1.9073486328125e-06 30.13940238952637 4.406162261962891 30.13940238952637 9.841442108154297 L 30.13940238952637 20.2979621887207 C 30.13940238952637 25.73324203491211 25.73324203491211 30.13940238952637 20.2979621887207 30.13940238952637 L 9.841442108154297 30.13940238952637 C 4.406162261962891 30.13940238952637 1.9073486328125e-06 25.73324203491211 1.9073486328125e-06 20.2979621887207 L 1.9073486328125e-06 9.841442108154297 C 1.9073486328125e-06 4.406162261962891 4.406162261962891 1.9073486328125e-06 9.841442108154297 1.9073486328125e-06 Z" stroke="none" fill="#707070"/>
    </g>
    <g id="Grupo_67869" data-name="Grupo 67869" transform="translate(27 71.25)">
      <g id="Grupo_67867" data-name="Grupo 67867" transform="translate(1237.221 -3727.416) rotate(45)">
        <g id="Caminho_35829" data-name="Caminho 35829" transform="translate(5114 -375)" fill="#707070">
          <path d="M 5.919380187988281 4.499999523162842 L 2.08063006401062 4.499999523162842 C 1.883739948272705 4.499999523162842 1.715270042419434 4.394049644470215 1.629979968070984 4.21658992767334 C 1.544690012931824 4.039139747619629 1.567199945449829 3.841399669647217 1.690189957618713 3.687659740447998 L 3.609560012817383 1.288439750671387 C 3.704969882965088 1.169179677963257 3.847280025482178 1.10077965259552 4 1.10077965259552 C 4.152719974517822 1.10077965259552 4.295030117034912 1.169179677963257 4.390439987182617 1.288439750671387 L 6.309810161590576 3.687659740447998 C 6.432799816131592 3.841399669647217 6.455309867858887 4.039139747619629 6.370019912719727 4.216599464416504 C 6.284729957580566 4.394059658050537 6.116270065307617 4.499999523162842 5.919380187988281 4.499999523162842 Z" stroke="none"/>
          <path d="M 4 1.60077977180481 L 2.080620288848877 3.999999523162842 L 5.919367790222168 3.999999523162842 C 5.919367790222168 3.999999046325684 5.919368743896484 3.999998331069946 5.919370174407959 3.999999523162842 L 4.00186014175415 1.600959777832031 C 4.001680374145508 1.60090970993042 4.000980377197266 1.60077977180481 4 1.60077977180481 M 4 0.6007823944091797 C 4.290352821350098 0.6007823944091797 4.580705165863037 0.7258849143981934 4.78087043762207 0.9760894775390625 L 6.700240135192871 3.375309705734253 C 7.224050045013428 4.030069828033447 6.757880210876465 4.999999523162842 5.919370174407959 4.999999523162842 L 2.080620288848877 4.999999523162842 C 1.242120265960693 4.999999523162842 0.7759504318237305 4.030069828033447 1.299760341644287 3.375309705734253 L 3.219130039215088 0.9760894775390625 C 3.419295310974121 0.7258849143981934 3.709647655487061 0.6007823944091797 4 0.6007823944091797 Z" stroke="none" fill="#707070"/>
        </g>
        <line id="Linha_42" data-name="Linha 42" y1="5" transform="translate(5118 -370.5)" fill="none" stroke="#707070" stroke-width="1"/>
      </g>
      <g id="Grupo_67868" data-name="Grupo 67868" transform="translate(5109.47 -356.063) rotate(-135)">
        <g id="Caminho_35828" data-name="Caminho 35828" transform="translate(0 0)" fill="#707070">
          <path d="M 5.919430732727051 4.500021934509277 L 2.080630540847778 4.500021934509277 C 1.883740544319153 4.500021934509277 1.715270519256592 4.39407205581665 1.629980564117432 4.216611862182617 C 1.544690489768982 4.039161682128906 1.567200541496277 3.841421842575073 1.690190553665161 3.687681913375854 L 3.609590530395508 1.288431882858276 C 3.705000400543213 1.169181823730469 3.847310543060303 1.100781917572021 4.000030517578125 1.100781917572021 C 4.152750492095947 1.100781917572021 4.295060634613037 1.169181823730469 4.390470504760742 1.288431882858276 L 6.309870719909668 3.687681913375854 C 6.432860374450684 3.841421842575073 6.455370426177979 4.039161682128906 6.370080471038818 4.216611862182617 C 6.284790515899658 4.39407205581665 6.116320610046387 4.500021934509277 5.919430732727051 4.500021934509277 Z" stroke="none"/>
          <path d="M 4.000030517578125 1.600781917572021 L 2.080630302429199 4.000021934509277 L 5.919430732727051 4.0000319480896 L 4.001900672912598 1.600971937179565 C 4.001710414886475 1.600911855697632 4.001010417938232 1.600781917572021 4.000030517578125 1.600781917572021 M 4.000030517578125 0.6007819175720215 C 4.290383338928223 0.6007819175720215 4.580735206604004 0.7258820533752441 4.780900478363037 0.9760818481445312 L 6.700300693511963 3.375331878662109 C 7.22411060333252 4.030091762542725 6.757940292358398 5.000021934509277 5.919430732727051 5.000021934509277 L 2.080630302429199 5.000021934509277 C 1.242120742797852 5.000021934509277 0.7759504318237305 4.030091762542725 1.299760341644287 3.375331878662109 L 3.219160556793213 0.9760818481445312 C 3.419325351715088 0.7258820533752441 3.709678173065186 0.6007819175720215 4.000030517578125 0.6007819175720215 Z" stroke="none" fill="#707070"/>
        </g>
        <line id="Linha_42-2" data-name="Linha 42" y1="5" transform="translate(4 4.5)" fill="none" stroke="#707070" stroke-width="1"/>
      </g>
    </g>
  </g>
</svg>
