<svg id="Compose" xmlns="http://www.w3.org/2000/svg" width="29" height="30" viewBox="0 0 29 30">
  <rect id="Retângulo_16894" data-name="Retângulo 16894" width="29" height="30" rx="4" fill="#141417" opacity="0"/>
  <g id="Edit-1" transform="translate(7.948 7.416)">
    <g id="Grupo_2686" data-name="Grupo 2686" transform="translate(0)">
      <path id="Caminho_20938" data-name="Caminho 20938" d="M13.326,3a2.717,2.717,0,0,0-1.914.787L8.221,6.959a11.345,11.345,0,0,0-3.008,5.279l-.154.612A.871.871,0,0,0,6.118,13.9l.616-.153a11.455,11.455,0,0,0,5.313-2.989l3.191-3.171A2.685,2.685,0,0,0,13.326,3Zm-.917,3.6a1.811,1.811,0,0,0,1.474.619l.492-.488a1.473,1.473,0,0,0-1.05-2.517,1.49,1.49,0,0,0-1.049.431l-.491.488A1.787,1.787,0,0,0,12.409,6.6Z" transform="translate(-4.218 -3)" fill="#fff" fill-rule="evenodd"/>
      <path id="Caminho_20939" data-name="Caminho 20939" d="M4,20.065a.609.609,0,0,1,.611-.608H16.018a.608.608,0,0,1,0,1.214H4.611A.609.609,0,0,1,4,20.065Z" transform="translate(-4 -6.505)" fill="#fff" fill-rule="evenodd"/>
    </g>
  </g>
</svg>
