<svg xmlns="http://www.w3.org/2000/svg" width="30.139" height="30.139" viewBox="0 0 30.139 30.139">
  <g id="Grupo_67879" data-name="Grupo 67879" transform="translate(-5125.86 310.07)">
    <g id="Caminho_35830" data-name="Caminho 35830" transform="translate(5125.86 -310.07)" fill="#2d2d2d">
      <path d="M 20.2979621887207 29.63940238952637 L 9.841442108154297 29.63940238952637 C 4.690552234649658 29.63940238952637 0.5000021457672119 25.4488525390625 0.5000021457672119 20.2979621887207 L 0.5000021457672119 9.841442108154297 C 0.5000021457672119 4.690552234649658 4.690552234649658 0.5000021457672119 9.841442108154297 0.5000021457672119 L 20.2979621887207 0.5000021457672119 C 25.4488525390625 0.5000021457672119 29.63940238952637 4.690552234649658 29.63940238952637 9.841442108154297 L 29.63940238952637 20.2979621887207 C 29.63940238952637 25.4488525390625 25.4488525390625 29.63940238952637 20.2979621887207 29.63940238952637 Z" stroke="none"/>
      <path d="M 9.841442108154297 1.000001907348633 C 4.966251373291016 1.000001907348633 1.000001907348633 4.966251373291016 1.000001907348633 9.841442108154297 L 1.000001907348633 20.2979621887207 C 1.000001907348633 25.17315292358398 4.966251373291016 29.13940238952637 9.841442108154297 29.13940238952637 L 20.2979621887207 29.13940238952637 C 25.17315292358398 29.13940238952637 29.13940238952637 25.17315292358398 29.13940238952637 20.2979621887207 L 29.13940238952637 9.841442108154297 C 29.13940238952637 4.966251373291016 25.17315292358398 1.000001907348633 20.2979621887207 1.000001907348633 L 9.841442108154297 1.000001907348633 M 9.841442108154297 1.9073486328125e-06 L 20.2979621887207 1.9073486328125e-06 C 25.73324203491211 1.9073486328125e-06 30.13940238952637 4.406162261962891 30.13940238952637 9.841442108154297 L 30.13940238952637 20.2979621887207 C 30.13940238952637 25.73324203491211 25.73324203491211 30.13940238952637 20.2979621887207 30.13940238952637 L 9.841442108154297 30.13940238952637 C 4.406162261962891 30.13940238952637 1.9073486328125e-06 25.73324203491211 1.9073486328125e-06 20.2979621887207 L 1.9073486328125e-06 9.841442108154297 C 1.9073486328125e-06 4.406162261962891 4.406162261962891 1.9073486328125e-06 9.841442108154297 1.9073486328125e-06 Z" stroke="none" fill="#707070"/>
    </g>
    <path id="Vector" d="M.346.067A.727.727,0,0,0,.132.256C.026.407.008.621.058,1.121A5.736,5.736,0,0,0,1.212,4.034,16.555,16.555,0,0,0,3.2,5.932C4.63,7.2,4.778,7.353,4.943,7.7c.2.419.187.2.2,3.624l.016,3.1.087.123a.557.557,0,0,0,.512.251c.163-.011.185-.025,1.957-1.206.986-.657,1.818-1.222,1.85-1.256.149-.159.148-.141.148-2.1,0-1.975.005-2.052.162-2.441s.256-.5,1.714-1.8c.752-.67,1.465-1.314,1.584-1.431a5.754,5.754,0,0,0,1.543-2.845A4.311,4.311,0,0,0,14.8.9l.014-.535L14.725.242a.681.681,0,0,0-.214-.181L14.384,0H.473ZM1.266,1.4a4.927,4.927,0,0,0,.691,1.689A11.185,11.185,0,0,0,3.934,5.03c1.031.919,1.545,1.4,1.67,1.554A4.011,4.011,0,0,1,6.21,7.793l.08.289L6.3,10.605c0,1.388.015,2.523.022,2.523s.514-.334,1.125-.741l1.112-.741.01-1.782.01-1.782L8.654,7.8a3.735,3.735,0,0,1,.67-1.3c.049-.06.772-.721,1.607-1.468S12.513,3.6,12.591,3.5a4.6,4.6,0,0,0,1.015-2.151l.037-.2H1.224Z" transform="translate(5133.508 -301.4)" fill="#707070" fill-rule="evenodd"/>
  </g>
</svg>
