<svg id="ic-home" xmlns="http://www.w3.org/2000/svg" width="25.002" height="24.852" viewBox="0 0 25.002 24.852">
  <path id="Caminho_110" data-name="Caminho 110" d="M27.721,15.125a.962.962,0,0,0,0-1.36L19.762,5.8a23.668,23.668,0,0,0-2.106-1.961A3.486,3.486,0,0,0,15.5,3a3.486,3.486,0,0,0-2.153.838A23.332,23.332,0,0,0,11.243,5.8L3.282,13.765a.962.962,0,0,0,1.36,1.36l.55-.552v4.212a8.9,8.9,0,0,0,6.868,8.668,15.059,15.059,0,0,0,6.884,0,8.9,8.9,0,0,0,6.868-8.668V14.574l.55.552a.963.963,0,0,0,1.361,0Z" transform="translate(-3 -3)" fill="#fff"/>
</svg>
