<svg xmlns="http://www.w3.org/2000/svg" width="25" height="26.472" viewBox="0 0 25 26.472">
  <g id="ic-media" transform="translate(-3.5 -2.999)">
    <g id="Grupo_48" data-name="Grupo 48" transform="translate(3.5 2.999)">
      <path id="Caminho_35757" data-name="Caminho 35757" d="M22.341,3.633a32.041,32.041,0,0,0-12.682,0A7.173,7.173,0,0,0,4.2,8.827l-.063.226a18.218,18.218,0,0,0,0,9.571l.062.226a7.175,7.175,0,0,0,5.457,5.191,31.808,31.808,0,0,0,5.331.618v2.728H12.634a1.042,1.042,0,0,0,0,2.084h6.732a1.042,1.042,0,0,0,0-2.084H17.01V24.661a32.05,32.05,0,0,0,5.331-.618A7.173,7.173,0,0,0,27.8,18.85l.063-.226a18.218,18.218,0,0,0,0-9.571L27.8,8.827a7.173,7.173,0,0,0-5.457-5.193ZM19.01,15.5l.034-.031,2.209-2.053a.853.853,0,0,0,.059-1.176.79.79,0,0,0-1.14-.062L17.963,14.23q-.225.214-.462.415-.181-.255-.347-.521L16.19,12.63l-.025-.038a7.132,7.132,0,0,0-.535-.759,1.452,1.452,0,0,0-.919-.54,1.436,1.436,0,0,0-1.021.288,6.85,6.85,0,0,0-.7.6l-.034.031-2.207,2.051a.853.853,0,0,0-.06,1.176.789.789,0,0,0,1.14.063l2.209-2.051c.216-.2.356-.329.462-.415.081.109.185.269.347.519l.965,1.5.025.038a7.089,7.089,0,0,0,.535.757,1.459,1.459,0,0,0,.919.541A1.436,1.436,0,0,0,18.31,16.1a7.243,7.243,0,0,0,.7-.6Z" transform="translate(-3.5 -2.999)" fill="#fff" fill-rule="evenodd"/>
    </g>
  </g>
</svg>
