<svg xmlns="http://www.w3.org/2000/svg" width="24" height="23.999" viewBox="0 0 24 23.999">
  <g id="_Bag---2" data-name="‌Bag---2" transform="translate(-3 -3.001)">
    <g id="Grupo_46" data-name="Grupo 46" transform="translate(3 3.001)">
      <path id="Caminho_35755" data-name="Caminho 35755" d="M19.507,26.476a9.44,9.44,0,0,0,7.06-6.992,16.676,16.676,0,0,0-.5-9.289l-.155-.445a9.8,9.8,0,0,0-7.523-6.356l-.957-.173a13.564,13.564,0,0,0-4.855,0l-.959.173A9.8,9.8,0,0,0,4.092,9.749l-.155.445a16.676,16.676,0,0,0-.5,9.289,9.44,9.44,0,0,0,7.061,6.992,19.63,19.63,0,0,0,9.011,0Z" transform="translate(-3 -3.001)" fill="#fff" fill-rule="evenodd"/>
      <path id="Icon_open-account-logout" data-name="Icon open-account-logout" d="M5.485,0V1.828H12.8v9.142H5.485V12.8h9.142V0ZM3.657,3.657,0,6.4,3.657,9.142V7.314h7.314V5.485H3.657Z" transform="translate(3 5.6)" fill="#242933"/>
    </g>
  </g>
</svg>
