<svg xmlns="http://www.w3.org/2000/svg" width="27.272" height="23.715" viewBox="0 0 27.272 23.715">
  <g id="ic-video" opacity="0.325">
    <path id="Vector" d="M15.265.192a6.015,6.015,0,0,0-4.437,3.437,5.944,5.944,0,0,0-.525,2.3l0,.4-.1-.45A4.692,4.692,0,0,0,8.791,3.312a4.711,4.711,0,0,0-1.832-1.2,5.15,5.15,0,0,0-4.377.407A6.089,6.089,0,0,0,.817,4.279a5.007,5.007,0,0,0-.246,4.7,4.763,4.763,0,0,0,.91,1.344l.359.4-.188.1a4.3,4.3,0,0,0-1.07,1.1,4.807,4.807,0,0,0-.319.681L.12,13,.105,16.868c-.017,4.363-.02,4.312.368,5.1A3.447,3.447,0,0,0,2.78,23.738c.557.116,14.5.116,15.053,0a3.447,3.447,0,0,0,2.307-1.775,3.578,3.578,0,0,0,.379-1.758,3.017,3.017,0,0,1,.028-.569c.015,0,1.165.944,2.556,2.1l2.529,2.1.248-.034a1.769,1.769,0,0,0,1.291-.96c.118-.241.132-.352.165-1.3.048-1.356.048-7.859,0-9.075-.034-.856-.051-.979-.166-1.216a1.768,1.768,0,0,0-1.285-.959l-.241-.033-2.562,1.7-2.562,1.7v-.172a3.542,3.542,0,0,0-.841-2.032l-.319-.378.354-.241a6.137,6.137,0,0,0,1.837-2.1,5.847,5.847,0,0,0-1.081-6.882,6.278,6.278,0,0,0-2.5-1.5A6.474,6.474,0,0,0,15.265.192Zm.268,1.67A4.313,4.313,0,0,0,12.25,4.645a4.248,4.248,0,1,0,3.283-2.782Zm-11,1.71a3.448,3.448,0,0,0-1.286.555A3.316,3.316,0,0,0,1.972,5.848a2.6,2.6,0,0,0-.142,1.036A2.6,2.6,0,0,0,1.972,7.92,3.316,3.316,0,0,0,3.321,9.688a3.07,3.07,0,0,0,1.88.549,2.647,2.647,0,0,0,1.049-.143A3.4,3.4,0,0,0,8.428,7.92,2.6,2.6,0,0,0,8.57,6.884a2.6,2.6,0,0,0-.142-1.036A3.316,3.316,0,0,0,7.08,4.08,3.535,3.535,0,0,0,4.535,3.572Zm5.757,3.6a5.053,5.053,0,0,1-1.177,2.932.229.229,0,0,0-.085.117,12.515,12.515,0,0,0,1.519.046h1.519l-.4-.485A6.034,6.034,0,0,1,10.4,7.041l-.068-.4ZM3.112,12.021a1.737,1.737,0,0,0-1.15.948l-.139.291v7.567l.139.291a1.77,1.77,0,0,0,.845.841L3.1,22.1H17.514l.293-.138a1.77,1.77,0,0,0,.845-.841l.139-.291V13.26l-.139-.291a1.77,1.77,0,0,0-.845-.841l-.293-.138-7.1-.008C6.379,11.977,3.225,11.994,3.112,12.021ZM23.06,13.666l-2.54,1.685v2.53l2.531,2.1c1.392,1.155,2.541,2.089,2.553,2.077s.016-2.284.009-5.049L25.6,11.981ZM.119,17.018c0,2.125.007,2.986.015,1.914s.008-2.81,0-3.863S.119,14.893.119,17.018Z" transform="translate(-0.099 -0.116)" fill="#707070" fill-rule="evenodd"/>
  </g>
</svg>
