<svg id="Grupo_67858" data-name="Grupo 67858" xmlns="http://www.w3.org/2000/svg" width="44" height="44" viewBox="0 0 44 44">
  <rect id="Retângulo_147944" data-name="Retângulo 147944" width="44" height="44" rx="16" fill="#c80ce3"/>
  <path id="Caminho_35788" data-name="Caminho 35788" d="M239.717,150.609a8.313,8.313,0,0,0,.856-1.763,7.387,7.387,0,0,0,.28-.986,2.63,2.63,0,0,0,.07-1.178,2.97,2.97,0,0,0-.427-.942,7,7,0,0,0-1.158-1.312c-.2-.184-.407-.357-.608-.538a1.736,1.736,0,0,0-.586-.446.131.131,0,0,0-.156.063.231.231,0,0,0,.019.195,4.539,4.539,0,0,1,.224.579,5.542,5.542,0,0,1-.519,4.7,3.858,3.858,0,0,1-4.118,2c-2.015-.323-3.579-2.426-3.611-4.824a4.866,4.866,0,0,1,3.5-4.967,5.8,5.8,0,0,1,2.662.225,9.414,9.414,0,0,1,6.193,5.1q.054.1.106.21a20.679,20.679,0,0,1,1.232,3.134c.286.938.465,1.888,1.292,2.385a1.817,1.817,0,0,0,1.759.067,2.529,2.529,0,0,0,1.189-1.651c.276-.934.53-1.878.795-2.817l.754-2.671c.527,1.872,1.034,3.67,1.537,5.468a2.9,2.9,0,0,0,.391.9,1.9,1.9,0,0,0,2.012.9,2.121,2.121,0,0,0,1.65-1.652c.714-2.493,1.413-4.992,2.119-7.489l.881-3.116a3.751,3.751,0,0,0-2.982,1.558,6.887,6.887,0,0,0-1.04,2.5c-.261.945-.528,1.886-.792,2.83a.182.182,0,0,1-.028.065.119.119,0,0,1-.064.037.376.376,0,0,1-.19,0,.125.125,0,0,1-.071-.039.188.188,0,0,1-.028-.066c-.035-.121-.071-.243-.106-.365q-.666-2.356-1.325-4.713a1.98,1.98,0,0,0-3.93.008c-.245.866-.485,1.733-.729,2.6-.217.771-.486,1.545-.655,2.331a.366.366,0,0,1-.084.175.26.26,0,0,1-.144.054.284.284,0,0,1-.228-.036.411.411,0,0,1-.1-.191l-.139-.418a14.162,14.162,0,0,0-1.954-3.892,11.8,11.8,0,0,0-1.15-1.352q-.315-.319-.652-.609-.171-.147-.346-.287c-.041-.033-.344-.222-.344-.264v-4.375c0-1.242.067-2.511,0-3.751-.01-.185-.03-.168-.19-.157a2.668,2.668,0,0,0-.313.039,2.779,2.779,0,0,0-.632.2,3.065,3.065,0,0,0-1.069.813,3.982,3.982,0,0,0-.878,2.479c-.028,1.068-.005,2.139-.005,3.208-.3-.08-.574-.157-.849-.223a9.231,9.231,0,0,0-3.835-.3c-3.769.682-6.323,4.876-5.641,9.251.569,3.647,3.341,6.413,6.5,6.488a6.119,6.119,0,0,0,2.986-.705A7.158,7.158,0,0,0,239.717,150.609Z" transform="translate(-220.67 -120.775)" fill="#fff"/>
</svg>
