<svg xmlns="http://www.w3.org/2000/svg" width="57.12" height="45.324" viewBox="0 0 57.12 45.324">
  <g id="Grupo_67888" data-name="Grupo 67888" transform="translate(-114.897 -65.569)">
    <path id="Caminho_35805" data-name="Caminho 35805" d="M201.478,103.6a8.792,8.792,0,0,1-8.626-7.122l-2.6-13.534a8.8,8.8,0,0,1,6.964-10.275l13.534-2.6a8.777,8.777,0,0,1,10.275,6.965l2.6,13.534a8.787,8.787,0,0,1-6.965,10.275l-13.534,2.6A8.769,8.769,0,0,1,201.478,103.6Z" transform="translate(-63.516 -3.668)" fill="#fff"/>
    <g id="Grupo_67850" data-name="Grupo 67850" transform="translate(125.906 65.569)">
      <path id="Caminho_35823" data-name="Caminho 35823" d="M7.851,0H22.076a7.851,7.851,0,0,1,7.851,7.851V22.076a7.851,7.851,0,0,1-7.851,7.851H7.851A7.851,7.851,0,0,1,0,22.076V7.851A7.851,7.851,0,0,1,7.851,0Z" transform="translate(0 5.644) rotate(-10.87)"/>
      <path id="Caminho_35806" data-name="Caminho 35806" d="M236.2,143.344a4.834,4.834,0,0,0,.611-1.081,4.05,4.05,0,0,0,.2-.6,1.4,1.4,0,0,0,.05-.722,1.71,1.71,0,0,0-.3-.577,4.581,4.581,0,0,0-.826-.8c-.143-.113-.29-.219-.434-.33a1.238,1.238,0,0,0-.418-.273.1.1,0,0,0-.111.038.124.124,0,0,0,.014.119,2.56,2.56,0,0,1,.159.355,2.988,2.988,0,0,1-.37,2.884,2.914,2.914,0,0,1-2.937,1.228,3.044,3.044,0,0,1-.075-6,4.781,4.781,0,0,1,1.9.138,6.591,6.591,0,0,1,4.417,3.124l.075.129a11.681,11.681,0,0,1,.878,1.921c.2.575.332,1.157.922,1.462a1.483,1.483,0,0,0,1.255.041,1.588,1.588,0,0,0,.848-1.012c.2-.573.378-1.152.567-1.727l.538-1.637c.376,1.148.737,2.25,1.1,3.352a1.663,1.663,0,0,0,.279.554,1.452,1.452,0,0,0,1.435.551,1.426,1.426,0,0,0,1.177-1.013c.509-1.528,1.008-3.061,1.511-4.591l.628-1.91a2.828,2.828,0,0,0-2.127.955,3.925,3.925,0,0,0-.742,1.535c-.186.579-.377,1.156-.565,1.735a.1.1,0,0,1-.02.04.089.089,0,0,1-.046.023.311.311,0,0,1-.135,0,.094.094,0,0,1-.051-.024.107.107,0,0,1-.02-.04c-.025-.074-.051-.149-.075-.224-.316-.963-.629-1.927-.945-2.889a1.454,1.454,0,0,0-2.8,0c-.175.531-.346,1.063-.52,1.594-.155.473-.346.947-.467,1.429a.213.213,0,0,1-.06.107.2.2,0,0,1-.1.033.23.23,0,0,1-.162-.022.244.244,0,0,1-.074-.117l-.1-.256a8.283,8.283,0,0,0-1.394-2.386,7.651,7.651,0,0,0-.82-.829q-.225-.2-.465-.373-.122-.09-.246-.176c-.029-.02-.246-.136-.246-.162v-2.682c0-.761.047-1.54,0-2.3-.007-.114-.021-.1-.135-.1a2.208,2.208,0,0,0-1.436.645A2.24,2.24,0,0,0,234.9,134c-.02.654,0,1.311,0,1.966-.215-.049-.409-.1-.605-.137a7.619,7.619,0,0,0-2.735-.184,4.855,4.855,0,0,0,.615,9.649,4.953,4.953,0,0,0,2.13-.432A4.891,4.891,0,0,0,236.2,143.344Z" transform="translate(-220.987 -121.553)" fill="#fff"/>
    </g>
    <path id="Caminho_35807" data-name="Caminho 35807" d="M126.521,350.474h5.37a3.276,3.276,0,0,1-2.569,1.1A3.406,3.406,0,0,1,126.521,350.474Zm8.053.895a5.617,5.617,0,0,0,3.465-.087,1.706,1.706,0,0,0,.768-.5l-.193-.306h-5.432A2.783,2.783,0,0,0,134.574,351.369Zm-14.929-.378a2.858,2.858,0,0,0,3.577-.093,3.4,3.4,0,0,0,.351-.424H119.16A2.73,2.73,0,0,0,119.644,350.991Zm4.048.413h2.2a7.873,7.873,0,0,0-.035-.93h-2.162Zm23.062,0h2.075l.374-.93h-2.756Zm5.069.008h2.06l.309-.938h-2.751Zm16.486-.01h2.216v-.928h-2.216Zm4.684,0h2.61l-.948-.925H172.1Zm-14.121.168c.072,0,.171,0,.269,0a3.229,3.229,0,0,0,2.412-1.093H156.17A3.377,3.377,0,0,0,158.872,351.567Zm-19.829-.632c.121.07.215.125.31.179a4.961,4.961,0,0,0,2.725.448,3.521,3.521,0,0,0,1.547-.407,1.791,1.791,0,0,0,.724-.681h-5.082Zm23.523.475h2.2c0-.315,0-.626,0-.936h-2.2C162.566,350.977,162.566,351.332,162.566,351.41Z" transform="translate(-3.586 -240.708)" fill="#fff"/>
    <path id="Caminho_35808" data-name="Caminho 35808" d="M130.417,326.705a1.534,1.534,0,1,0,1.527,1.547A1.482,1.482,0,0,0,130.417,326.705Z" transform="translate(-11.869 -220.626)" fill="none"/>
    <path id="Caminho_35809" data-name="Caminho 35809" d="M147.6,349.6h.12v-.16Z" transform="translate(-27.615 -239.838)" fill="none"/>
    <path id="Caminho_35810" data-name="Caminho 35810" d="M450.268,341.532h1.579l-1.579-1.642Z" transform="translate(-283.329 -231.766)" fill="none"/>
    <path id="Caminho_35811" data-name="Caminho 35811" d="M312.82,335.4h2.239l-1.126-2.769Z" transform="translate(-167.203 -225.63)" fill="none"/>
    <path id="Caminho_35812" data-name="Caminho 35812" d="M367.791,327.249a1.458,1.458,0,1,0,1.336,1.479A1.339,1.339,0,0,0,367.791,327.249Z" transform="translate(-212.492 -221.086)" fill="none"/>
    <path id="Caminho_35813" data-name="Caminho 35813" d="M176.654,327.252a1.457,1.457,0,1,0,1.359,1.456A1.336,1.336,0,0,0,176.654,327.252Z" transform="translate(-51.028 -221.088)" fill="none"/>
    <path id="Caminho_35814" data-name="Caminho 35814" d="M201.878,343.155a3.813,3.813,0,0,1-.649,1.135h1.292a3.1,3.1,0,0,1-.541-.977C201.958,343.251,201.949,343.184,201.878,343.155Z" transform="translate(-72.923 -234.524)" fill="none"/>
    <path id="Caminho_35815" data-name="Caminho 35815" d="M220.087,324.9a1.135,1.135,0,0,0-1.244,1.12h2.366A1.065,1.065,0,0,0,220.087,324.9Z" transform="translate(-87.805 -219.097)" fill="none"/>
    <path id="Caminho_35816" data-name="Caminho 35816" d="M171.382,320.333a1.221,1.221,0,0,1-1.143-1.2h4.5a3.033,3.033,0,0,0-1.925-3.532,4.128,4.128,0,0,0-2.781.051,2.955,2.955,0,0,0-1.82,2.062,3.2,3.2,0,0,0-2.236-2.17,3.853,3.853,0,0,0-1.731-.1,3.27,3.27,0,0,0-2.132,5.3c.024.029.048.056.073.083h5.37a3.813,3.813,0,0,0,.649-1.135c.071.029.079.1.1.159a3.1,3.1,0,0,0,.541.977h5.432l-.648-1.029A2.962,2.962,0,0,1,171.382,320.333Zm.149-3.47a1.065,1.065,0,0,1,1.122,1.12h-2.366A1.135,1.135,0,0,1,171.531,316.863Zm-6.626,3.271a1.457,1.457,0,0,1-.03-2.906,1.457,1.457,0,0,1,.03,2.906Z" transform="translate(-39.249 -211.064)" fill="#fff" stroke="#fff" stroke-miterlimit="10" stroke-width="0.028"/>
    <path id="Caminho_35817" data-name="Caminho 35817" d="M122.186,295.087a1.108,1.108,0,0,0,.129-.53c0-1.584,0-3.167,0-4.751v-.322a2.233,2.233,0,0,0-2.171,1.714,3.822,3.822,0,0,0-.065.885c0,.87,0,1.741,0,2.7a1.511,1.511,0,0,0-.576-.767,2.949,2.949,0,0,0-3.283,0,3.684,3.684,0,0,0-.642,4.93h4.412l.12-.16v.16h2.162a2.165,2.165,0,0,0-.184-.651A3.507,3.507,0,0,1,122.186,295.087Zm-3.624,3.238a1.536,1.536,0,0,1-.013-3.068,1.534,1.534,0,0,1,.013,3.068Z" transform="translate(0 -189.178)" fill="#fff" stroke="#fff" stroke-miterlimit="10" stroke-width="0.028"/>
    <path id="Caminho_35818" data-name="Caminho 35818" d="M294.256,316.625a2.113,2.113,0,0,0-1.176.345,1.967,1.967,0,0,0-.765,1.106c-.142.543-.291,1.085-.436,1.628l-.195.727c-.069-.13-.116-.277-.172-.413q-.188-.456-.374-.913-.212-.52-.422-1.04a3.242,3.242,0,0,0-.446-.949,1.071,1.071,0,0,0-1.306-.242c-.439.23-.559.711-.726,1.138q-.306.783-.614,1.565l-.368.937c-.239-.894-.451-1.722-.683-2.545a1.793,1.793,0,0,0-1.652-1.337c-.34-.015-.681,0-1.065,0l1.737,5.244h2.756l1.113-2.769,1.126,2.769h2.751l1.73-5.246C294.8,316.625,294.523,316.614,294.256,316.625Z" transform="translate(-142.732 -212.106)" fill="#fff" stroke="#fff" stroke-miterlimit="10" stroke-width="0.028"/>
    <path id="Caminho_35819" data-name="Caminho 35819" d="M442.919,293.678h-2.572l-2.15,2.158v-.317c0-1.275-.009-2.473,0-3.827a2.23,2.23,0,0,0-2.209-2.247v9.467H438.2V297.27l1.579,1.642h2.551l-2.436-2.375Z" transform="translate(-271.262 -189.146)" fill="#fff"/>
    <path id="Caminho_35820" data-name="Caminho 35820" d="M358.518,316.4a3.6,3.6,0,0,0-3-.859,3.279,3.279,0,0,0-2.739,4.41,2.979,2.979,0,0,0,.6.979h5.384a3.045,3.045,0,0,0,.542-.894A3.334,3.334,0,0,0,358.518,316.4Zm-2.442,3.835a1.458,1.458,0,1,1,1.351-1.428A1.332,1.332,0,0,1,356.076,320.236Z" transform="translate(-200.793 -211.166)" fill="#fff" stroke="#fff" stroke-miterlimit="10" stroke-width="0.028"/>
    <path id="Caminho_35821" data-name="Caminho 35821" d="M254.1,319.754a1.593,1.593,0,0,0-1.122-1.442,7.746,7.746,0,0,0-1.32-.4,1.231,1.231,0,0,1-.455-.168.47.47,0,0,1-.218-.412.447.447,0,0,1,.2-.314.911.911,0,0,1,.361-.129,2.544,2.544,0,0,1,1.544.285c.042.021.121.086.166.089.072,0,.08-.054.118-.123l.212-.383c.036-.065.418-.769.423-.766a5.238,5.238,0,0,0-2.187-.509,3.672,3.672,0,0,0-2.263.559,1.6,1.6,0,0,0-.06,2.611,3.334,3.334,0,0,0,1.353.571,2.493,2.493,0,0,1,.806.274.453.453,0,0,1-.013.822,1.407,1.407,0,0,1-.6.16,2.824,2.824,0,0,1-1.8-.547l-.476.976h5.082A2.036,2.036,0,0,0,254.1,319.754Z" transform="translate(-113.098 -211.143)" fill="#fff" stroke="#fff" stroke-miterlimit="10" stroke-width="0.028"/>
    <path id="Caminho_35822" data-name="Caminho 35822" d="M401.155,318.923a2.389,2.389,0,0,1,.043-.556,1.434,1.434,0,0,1,2.395-.772l.843-1.768a2.373,2.373,0,0,0-3.282.739v-.912c-.763,0-1.48.012-2.208.012,0,.74,0,3.677,0,5.215h2.2C401.152,320.222,401.152,319.572,401.155,318.923Z" transform="translate(-239.969 -211.116)" fill="#fff" stroke="#fff" stroke-miterlimit="10" stroke-width="0.028"/>
  </g>
</svg>
