<svg xmlns="http://www.w3.org/2000/svg" width="25" height="25" viewBox="0 0 25 25">
  <g id="Menu" transform="translate(-3 -3)">
    <g id="ic_api" transform="translate(3 3)">
      <path id="Caminho_35758" data-name="Caminho 35758" d="M10.21,3.217a8.2,8.2,0,0,0-3.743,0,4.361,4.361,0,0,0-3.25,3.25,8.2,8.2,0,0,0,0,3.743,4.361,4.361,0,0,0,3.25,3.25,8.2,8.2,0,0,0,3.743,0,4.361,4.361,0,0,0,3.25-3.25,8.2,8.2,0,0,0,0-3.743,4.361,4.361,0,0,0-3.25-3.25Z" transform="translate(-3 -3)" fill="#fff"/>
      <path id="Caminho_35759" data-name="Caminho 35759" d="M10.21,13.53a8.2,8.2,0,0,0-3.743,0,4.361,4.361,0,0,0-3.25,3.25,8.2,8.2,0,0,0,0,3.743,4.361,4.361,0,0,0,3.25,3.25,8.2,8.2,0,0,0,3.743,0,4.361,4.361,0,0,0,3.25-3.25,8.2,8.2,0,0,0,0-3.743,4.361,4.361,0,0,0-3.25-3.25Z" transform="translate(-3 1.011)" fill="#fff"/>
      <path id="Caminho_35760" data-name="Caminho 35760" d="M20.523,3.217a8.2,8.2,0,0,0-3.743,0,4.361,4.361,0,0,0-3.25,3.25,8.2,8.2,0,0,0,0,3.743,4.361,4.361,0,0,0,3.25,3.25,8.2,8.2,0,0,0,3.743,0,4.361,4.361,0,0,0,3.25-3.25,8.2,8.2,0,0,0,0-3.743A4.361,4.361,0,0,0,20.523,3.217Z" transform="translate(1.011 -3)" fill="#fff"/>
      <path id="Caminho_35761" data-name="Caminho 35761" d="M20.523,13.53a8.2,8.2,0,0,0-3.743,0,4.361,4.361,0,0,0-3.25,3.25,8.2,8.2,0,0,0,0,3.743,4.361,4.361,0,0,0,3.25,3.25,8.2,8.2,0,0,0,3.743,0,4.361,4.361,0,0,0,3.25-3.25,8.2,8.2,0,0,0,0-3.743,4.361,4.361,0,0,0-3.25-3.25Z" transform="translate(1.011 1.011)" fill="#fff"/>
    </g>
  </g>
</svg>
